<svg width="20" height="21" viewBox="0 0 20 21" fill="none" xmlns="http://www.w3.org/2000/svg">
<path d="M5.83337 7.4828H9.58337M14.1667 7.4828H12.0834M9.58337 7.4828H12.0834M9.58337 7.4828V6.33337M12.0834 7.4828C11.6438 9.05472 10.7233 10.5406 9.67266 11.8465M6.99409 14.6667C7.84341 13.8857 8.80266 12.9278 9.67266 11.8465M9.67266 11.8465C9.13695 11.2184 8.38695 10.2022 8.17266 9.74247M9.67266 11.8465L11.2798 13.5173" stroke="#19252B" stroke-width="1.5" stroke-linecap="round" stroke-linejoin="round"/>
<path d="M2.08337 10.5C2.08337 6.76809 2.08337 4.90211 3.24274 3.74274C4.40211 2.58337 6.26809 2.58337 10 2.58337C13.732 2.58337 15.598 2.58337 16.7573 3.74274C17.9167 4.90211 17.9167 6.76809 17.9167 10.5C17.9167 14.232 17.9167 16.098 16.7573 17.2573C15.598 18.4167 13.732 18.4167 10 18.4167C6.26809 18.4167 4.40211 18.4167 3.24274 17.2573C2.08337 16.098 2.08337 14.232 2.08337 10.5Z" stroke="#19252B" stroke-width="1.5"/>
</svg>
